<svg width="152" height="25" viewBox="0 0 152 25" fill="none" xmlns="http://www.w3.org/2000/svg">
<path d="M36.4799 2.97823C36.49 2.81545 36.5503 2.66895 36.662 2.53935C36.7164 2.47581 36.7847 2.42532 36.8618 2.39169C36.9389 2.35807 37.0228 2.34219 37.107 2.34527H41.44C41.586 2.34527 41.7364 2.40537 41.8919 2.52495C41.9648 2.57655 42.0241 2.64465 42.0647 2.72353C42.1054 2.8024 42.1262 2.88975 42.1255 2.97823V9.79803H49.3753V2.97823C49.3753 2.80543 49.4362 2.65705 49.5575 2.53246C49.6794 2.40725 49.8368 2.34464 50.0317 2.34464H54.3062C54.5005 2.34464 54.6706 2.39285 54.8166 2.48864C54.9626 2.58505 55.0356 2.73844 55.0356 2.94943V23.0776C55.0356 23.2886 54.9721 23.447 54.8451 23.5522C54.7195 23.658 54.5538 23.7106 54.35 23.7106H50.0317C49.8374 23.7106 49.6794 23.658 49.5575 23.5522C49.4362 23.447 49.3753 23.2893 49.3753 23.0776V14.9055H42.1255V23.0776C42.1255 23.2792 42.0595 23.4345 41.9288 23.5453C41.7974 23.6555 41.6196 23.7106 41.3955 23.7106H37.107C36.6989 23.7106 36.49 23.5234 36.4799 23.1496V2.97823ZM76.3913 23.4664C76.265 23.5716 76.131 23.6386 75.9901 23.6674C75.8584 23.6954 75.7242 23.7101 75.5896 23.7112H73.3869C73.2117 23.7112 73.0606 23.6799 72.9343 23.6173C72.8073 23.5547 72.7007 23.4708 72.6131 23.3656C72.5235 23.2564 72.45 23.1352 72.3947 23.0056C72.336 22.8703 72.2872 22.731 72.2487 22.5887L71.7968 20.7468C71.6508 21.0442 71.4394 21.3822 71.162 21.761C70.8619 22.163 70.5059 22.5213 70.1045 22.8253C69.6766 23.1572 69.1656 23.4351 68.5728 23.6605C67.9793 23.8859 67.2988 23.9986 66.5301 23.9986C65.4217 23.9986 64.415 23.7876 63.5104 23.3656C62.6249 22.9575 61.8369 22.369 61.1986 21.6389C60.5619 20.9102 60.0681 20.0587 59.7183 19.0846C59.3679 18.1116 59.1927 17.073 59.1927 15.9705V6.54621C59.1927 6.18184 59.2733 5.90636 59.4339 5.71917C59.5939 5.53197 59.8491 5.43869 60.1995 5.43869H63.5688C63.9878 5.43869 64.2741 5.50756 64.4296 5.64717C64.5851 5.78616 64.6632 6.05725 64.6632 6.45981V15.8259C64.6632 16.2391 64.7584 16.6297 64.9476 16.9991C65.1374 17.3685 65.3875 17.694 65.6991 17.977C66.0102 18.26 66.3625 18.4835 66.7567 18.6463C67.1502 18.8091 67.5514 18.8905 67.9602 18.8905C68.31 18.8905 68.6724 18.8091 69.0469 18.6463C69.4239 18.4814 69.7731 18.2606 70.0823 17.9914C70.3984 17.7185 70.6586 17.3967 70.863 17.0273C71.0674 16.6579 71.169 16.2672 71.169 15.8553V6.50301C71.169 6.34023 71.2007 6.17745 71.2642 6.01405C71.3277 5.85127 71.4223 5.72606 71.5486 5.63966C71.6749 5.56328 71.7942 5.51069 71.906 5.48189C72.0177 5.45309 72.1472 5.43806 72.2925 5.43806H75.5896C76.0072 5.43806 76.3088 5.53949 76.4935 5.74045C76.6782 5.94205 76.7709 6.21063 76.7709 6.54621V22.6463C76.7709 22.8278 76.7296 22.9963 76.6471 23.1496C76.5646 23.303 76.4503 23.4232 76.3043 23.509L76.3913 23.4664ZM93.3277 21.4805C93.0649 21.7397 92.7754 22.0177 92.46 22.3151C92.1438 22.6125 91.796 22.8911 91.417 23.1496C91.0356 23.4099 90.6244 23.6248 90.1919 23.7901C89.7401 23.9605 89.26 24.0459 88.7764 24.0418C87.4541 24.0418 86.236 23.7976 85.122 23.308C84.036 22.8381 83.0583 22.1552 82.2483 21.3009C81.446 20.4519 80.8188 19.4521 80.3669 18.3007C79.9143 17.15 79.6883 15.9129 79.6883 14.5887C79.6883 13.2552 79.9143 12.0156 80.3669 10.8699C80.8188 9.72415 81.446 8.72619 82.2483 7.87724C83.0574 7.02374 84.0354 6.34314 85.122 5.87756C86.236 5.39298 87.4541 5.15069 88.7764 5.15069C89.3115 5.15069 89.8003 5.2277 90.2427 5.38109C90.6696 5.52697 91.0763 5.72511 91.4532 5.97085C91.8182 6.21064 92.1534 6.48172 92.46 6.78349C92.7659 7.08588 93.0554 7.38076 93.3277 7.66876V1.09312C93.3277 0.786347 93.4229 0.527779 93.6121 0.316793C93.8019 0.10518 94.0862 0 94.4658 0H97.7476C97.8746 0 98.0079 0.026295 98.1488 0.0788851C98.2897 0.132101 98.4186 0.205978 98.536 0.302393C98.6522 0.398182 98.7468 0.513379 98.8198 0.647359C98.8928 0.781964 98.9296 0.930343 98.9296 1.09312V22.6031C98.9296 23.3418 98.536 23.7112 97.7476 23.7112H94.8886C94.6944 23.7112 94.5433 23.6862 94.4366 23.6386C94.3307 23.5917 94.2379 23.5202 94.1662 23.4301C94.085 23.3245 94.0188 23.2085 93.9694 23.0852C93.9007 22.9227 93.8279 22.762 93.7511 22.6031L93.3277 21.4805ZM84.9398 14.5887C84.9349 15.1938 85.0361 15.7951 85.2388 16.3662C85.4381 16.9171 85.7225 17.3948 86.0925 17.7974C86.4661 18.2031 86.9203 18.5287 87.4268 18.754C87.9473 18.9894 88.5237 19.1065 89.156 19.1065C89.778 19.1065 90.3639 18.9963 90.9136 18.7759C91.4475 18.565 91.9352 18.2546 92.3501 17.8618C92.7624 17.4685 93.0965 17.0026 93.3353 16.4882C93.5829 15.9605 93.7219 15.3945 93.7511 14.7903V14.5887C93.7533 13.9867 93.6342 13.3902 93.4007 12.8339C93.1746 12.2885 92.8454 11.7905 92.4308 11.3663C92.0151 10.9427 91.5196 10.6031 90.972 10.3665C90.3997 10.1192 89.7808 9.99419 89.156 9.99962C88.5237 9.99962 87.9473 10.1217 87.4268 10.3665C86.9063 10.6107 86.462 10.9444 86.0925 11.3663C85.717 11.7983 85.4274 12.2961 85.2388 12.8339C85.0384 13.3977 84.9375 13.9913 84.9404 14.5887H84.9398ZM115.866 21.4805C115.603 21.7397 115.314 22.0177 114.998 22.3151C114.681 22.6125 114.334 22.8911 113.955 23.1496C113.573 23.4099 113.162 23.6248 112.73 23.7901C112.278 23.9605 111.798 24.0459 111.314 24.0418C109.992 24.0418 108.774 23.7976 107.66 23.308C106.574 22.8381 105.596 22.1552 104.786 21.3009C103.984 20.4519 103.356 19.4521 102.905 18.3007C102.453 17.15 102.226 15.9129 102.226 14.5887C102.226 13.2552 102.453 12.0156 102.905 10.8699C103.356 9.72415 103.984 8.72619 104.786 7.87724C105.595 7.02367 106.573 6.34306 107.66 5.87756C108.774 5.39298 109.992 5.15069 111.314 5.15069C111.849 5.15069 112.338 5.2277 112.78 5.38109C113.207 5.52697 113.614 5.72511 113.991 5.97085C114.356 6.21064 114.691 6.48172 114.998 6.78349C115.304 7.08588 115.593 7.38076 115.865 7.66876V1.09312C115.865 0.786347 115.961 0.527779 116.15 0.316793C116.34 0.10518 116.624 0 117.004 0H120.285C120.412 0 120.546 0.026295 120.686 0.0788851C120.828 0.132101 120.957 0.205978 121.074 0.302393C121.19 0.398182 121.285 0.513379 121.358 0.647359C121.43 0.781964 121.467 0.930343 121.467 1.09312V22.6031C121.467 23.3418 121.074 23.7112 120.285 23.7112H117.426C117.232 23.7112 117.081 23.6862 116.974 23.6386C116.869 23.5916 116.776 23.5201 116.705 23.4301C116.623 23.3245 116.557 23.2085 116.508 23.0852C116.439 22.9227 116.366 22.762 116.289 22.6031L115.866 21.4805ZM107.477 14.5887C107.473 15.1938 107.574 15.7951 107.776 16.3662C107.976 16.9171 108.261 17.3948 108.63 17.7974C109.004 18.2032 109.458 18.5288 109.965 18.754C110.486 18.9894 111.061 19.1065 111.694 19.1065C112.316 19.1065 112.902 18.9963 113.451 18.7759C113.985 18.565 114.473 18.2547 114.888 17.8618C115.3 17.4684 115.634 17.0025 115.872 16.4882C116.121 15.9605 116.26 15.3945 116.289 14.7903V14.5887C116.291 13.9867 116.172 13.3902 115.938 12.8339C115.712 12.2885 115.383 11.7905 114.968 11.3663C114.553 10.9427 114.057 10.6031 113.51 10.3665C112.937 10.1192 112.318 9.99419 111.694 9.99962C111.061 9.99962 110.485 10.1217 109.965 10.3665C109.445 10.6107 109 10.9444 108.63 11.3663C108.255 11.7983 107.965 12.2961 107.776 12.8339C107.576 13.3977 107.474 13.9913 107.477 14.5887ZM125.348 1.10752C125.348 0.800746 125.426 0.542178 125.581 0.331192C125.737 0.11958 126.005 0.0143997 126.384 0.0143997H129.957C130.055 0.0143997 130.157 0.0406947 130.264 0.0932848C130.376 0.149999 130.477 0.225644 130.563 0.316793C130.656 0.412582 130.733 0.527779 130.797 0.661758C130.86 0.796364 130.892 0.944743 130.892 1.10752V22.6031C130.892 22.9675 130.787 23.2429 130.578 23.4301C130.369 23.6173 130.099 23.7106 129.768 23.7106H126.384C126.005 23.7106 125.737 23.6167 125.581 23.4301C125.426 23.2429 125.348 22.9668 125.348 22.6031V1.10752ZM149.914 21.5237C149.068 22.2944 148.09 22.9106 147.026 23.3437C145.948 23.7818 144.792 24.0044 143.627 23.9986C142.294 23.9986 141.035 23.7588 139.848 23.2786C138.689 22.8164 137.629 22.1402 136.727 21.2865C135.827 20.4311 135.104 19.4124 134.597 18.2863C134.071 17.1356 133.809 15.8841 133.809 14.5311C133.809 13.6872 133.913 12.8695 134.123 12.0782C134.325 11.3039 134.624 10.5574 135.013 9.85563C135.397 9.16494 135.867 8.52449 136.413 7.94924C136.957 7.37302 137.578 6.87201 138.258 6.45981C138.95 6.04232 139.696 5.71806 140.476 5.49566C141.296 5.26247 142.145 5.14631 142.999 5.15069C143.806 5.15069 144.589 5.2565 145.347 5.46749C146.106 5.67847 146.819 5.97586 147.485 6.35901C148.151 6.7428 148.761 7.20359 149.315 7.74076C149.862 8.26897 150.343 8.86077 150.745 9.50315C151.144 10.1409 151.455 10.8278 151.672 11.546C151.89 12.2704 152 13.016 152 13.783C152 14.282 151.992 14.6895 151.978 15.0063C151.963 15.3225 151.888 15.5748 151.752 15.7614C151.615 15.9492 151.39 16.0782 151.073 16.1495C150.757 16.2222 150.292 16.2578 149.68 16.2578H139.177C139.275 16.8714 139.471 17.3848 139.768 17.798C140.042 18.1891 140.392 18.5236 140.796 18.7828C141.185 19.0276 141.598 19.2023 142.036 19.3087C142.442 19.41 142.858 19.4629 143.276 19.4665C143.627 19.4665 143.986 19.4301 144.355 19.3588C144.719 19.2883 145.078 19.192 145.428 19.0708C145.755 18.9585 146.073 18.8188 146.376 18.6532C146.663 18.4954 146.894 18.3295 147.069 18.1573C147.224 18.0321 147.358 17.9388 147.47 17.8762C147.582 17.8136 147.701 17.783 147.827 17.783C147.954 17.783 148.083 17.8268 148.215 17.9125C148.375 18.0228 148.523 18.148 148.659 18.2863L150.205 20.013C150.312 20.1382 150.381 20.2509 150.41 20.3511C150.439 20.4519 150.454 20.5552 150.454 20.6604C150.454 20.8526 150.4 21.0179 150.293 21.1569C150.185 21.2967 150.058 21.4203 149.914 21.5237ZM142.897 9.53883C142.518 9.53883 142.151 9.61334 141.796 9.76172C141.436 9.91336 141.099 10.1144 140.796 10.359C140.485 10.6082 140.206 10.8912 139.958 11.2079C139.721 11.5066 139.518 11.8299 139.352 12.1721H146.806C146.611 11.8114 146.389 11.4651 146.143 11.1359C145.909 10.8237 145.634 10.5431 145.326 10.3014C145.011 10.0569 144.655 9.86716 144.275 9.74043C143.882 9.60582 143.422 9.53883 142.897 9.53883Z" fill="white"/>
<path opacity="0.8" d="M17.5483 0.775639C12.6996 0.773169 7.64049 1.84776 2.53435 3.24165C1.88597 3.37011 1.25327 3.78759 0.918718 4.30389C0.611157 4.79055 0.499431 5.27906 0.403397 5.79104C-0.0924666 8.5257 -0.0322097 11.2109 0.070729 14.1865C0.0933253 14.8677 0.196264 15.6748 0.519517 16.1658C0.857206 16.6617 1.43592 16.9767 2.12699 17.0798C3.00988 17.2073 3.89554 17.3154 4.78331 17.4041L4.58748 22.7758C4.55735 23.2032 4.76951 23.5583 5.03313 23.7627C5.26913 23.9393 5.53213 24.0178 5.80203 24.0375C6.34183 24.0777 6.97516 23.8504 7.28962 23.2612C8.66737 20.6526 9.53168 19.5008 11.2546 17.7678C15.7475 17.8765 19.6699 17.6307 24.1107 17.3077C25.6805 17.2676 26.7582 16.0046 27.0432 14.9961C27.8949 12.3825 28.0274 9.15625 28.1178 5.89479C28.1561 4.60219 27.7004 3.33305 26.8938 2.66236C26.1268 2.05033 25.1978 1.82862 24.3467 1.60135C21.9822 1.07455 19.6172 0.791696 17.5483 0.775639ZM24.0071 2.81984C24.8595 3.04773 25.6108 3.26697 26.0847 3.64555C26.8756 4.47249 26.8492 5.02276 26.8379 5.91517C26.7488 9.07843 26.5944 12.1484 25.8688 14.4749C25.5562 15.3426 25.0114 15.9602 23.982 16.0534C19.4577 16.3826 15.5323 16.637 10.9847 16.5098C10.8962 16.507 10.808 16.5221 10.7256 16.5542C10.6433 16.5863 10.5684 16.6347 10.5058 16.6963C8.59518 18.5948 7.61789 19.9139 6.16169 22.6721C6.12779 22.7351 6.05436 22.7733 5.96397 22.7801C5.90309 22.7771 5.87861 22.7307 5.87484 22.6887L6.07193 16.8637C6.08386 16.5493 5.82023 16.2492 5.50263 16.2152C4.44068 16.1154 3.38162 15.9878 2.32659 15.8323C1.8709 15.7638 1.70268 15.6409 1.57778 15.4581C1.3606 14.9486 1.36562 14.6336 1.34868 14.1439C1.24699 11.1949 1.19678 8.61772 1.65686 6.05351C1.69955 5.67431 1.84391 5.28647 1.99706 4.96224C2.25064 4.57193 2.63918 4.51449 3.02896 4.40827C8.02274 3.05143 12.9086 2.03674 17.5082 2.03366C19.7628 2.11394 22.1304 2.33627 24.0071 2.81984ZM6.75924 7.81609C6.0713 8.62698 6.13972 9.72813 6.67136 10.4655C6.94879 10.8515 7.38189 11.1622 7.90914 11.2326C8.59393 11.2881 9.02828 11.0152 9.49715 10.7014C10.3464 9.97516 10.4324 8.70788 9.78651 7.79262C9.45761 7.32635 8.93162 7.04658 8.39433 7.02682C7.65869 7.03423 7.15906 7.35723 6.75924 7.81547V7.81609ZM14.201 7.15404C13.5155 7.17566 12.9613 7.64255 12.623 8.1465C12.2357 8.72271 12.0097 9.44404 12.3229 10.1512C12.9255 11.5117 15.0075 11.495 15.8379 10.1123C16.2208 9.47492 16.1229 8.7505 15.8379 8.22493C15.5542 7.69999 15.1249 7.272 14.5004 7.17381C14.4014 7.1578 14.3012 7.15118 14.201 7.15404ZM20.2423 7.28188C20.0289 7.27694 19.8092 7.2967 19.6034 7.35043C18.7798 7.56659 18.0787 8.4028 18.1848 9.47307C18.2388 10.0116 18.4905 10.5365 18.9443 10.8985C19.3981 11.2597 20.0572 11.4215 20.752 11.2814C21.5504 11.1208 22.045 10.4878 22.2101 9.87635C22.3752 9.26494 22.3337 8.6418 21.9502 8.13662C21.7507 7.87554 21.4931 7.6628 21.1972 7.51466C20.9013 7.36652 20.5743 7.2869 20.2423 7.28188ZM8.33847 8.28422C8.49225 8.28546 8.61339 8.33363 8.73829 8.51026C9.01761 8.90675 8.93978 9.50765 8.65795 9.74851C8.37738 9.98937 8.20226 10.0104 8.07924 9.99431C7.95621 9.97764 7.8313 9.89426 7.71958 9.73863C7.50617 9.44219 7.4434 8.96295 7.72397 8.6208C7.87336 8.42565 8.14765 8.30398 8.33909 8.28422H8.33847ZM14.2907 8.42194C14.3146 8.42565 14.582 8.57819 14.71 8.81473C14.838 9.05126 14.8619 9.27112 14.7401 9.47307C14.378 10.0758 13.6078 9.91279 13.4911 9.65032C13.4471 9.55027 13.4804 9.14822 13.6919 8.83511C13.9022 8.52076 14.1671 8.4028 14.2907 8.42132V8.42194ZM20.9215 8.88389C20.9604 8.93515 21.0552 9.27915 20.9817 9.55212C20.9077 9.82509 20.7871 9.99369 20.4921 10.053C20.1143 10.1296 19.9021 10.053 19.7433 9.92514C19.5839 9.79854 19.4766 9.58423 19.4533 9.35511C19.3968 8.78693 19.604 8.65539 19.9329 8.56893C20.3158 8.47629 20.7489 8.6381 20.9215 8.88389Z" fill="white"/>
</svg>
