<svg width="200" height="31" viewBox="0 0 200 31" fill="none" xmlns="http://www.w3.org/2000/svg">
<path d="M48 3.84016C48.0134 3.63028 48.0927 3.44138 48.2397 3.27427C48.3113 3.19235 48.4012 3.12724 48.5026 3.08388C48.604 3.04053 48.7144 3.02005 48.8252 3.02402H54.5265C54.7186 3.02402 54.9165 3.10152 55.1212 3.2557C55.217 3.32224 55.295 3.41005 55.3485 3.51175C55.402 3.61346 55.4294 3.72608 55.4285 3.84016V12.6337H64.9677V3.84016C64.9677 3.61736 65.0479 3.42604 65.2074 3.26539C65.3678 3.10394 65.5749 3.02321 65.8313 3.02321H71.4557C71.7113 3.02321 71.9352 3.08537 72.1273 3.20888C72.3194 3.3332 72.4154 3.53098 72.4154 3.80303V29.7566C72.4154 30.0287 72.3319 30.2329 72.1648 30.3685C71.9995 30.505 71.7815 30.5728 71.5134 30.5728H65.8313C65.5757 30.5728 65.3678 30.505 65.2074 30.3685C65.0479 30.2329 64.9677 30.0295 64.9677 29.7566V19.2194H55.4285V29.7566C55.4285 30.0166 55.3417 30.2168 55.1696 30.3597C54.9967 30.5017 54.7628 30.5728 54.468 30.5728H48.8252C48.2882 30.5728 48.0134 30.3314 48 29.8495V3.84016ZM100.515 30.2579C100.349 30.3936 100.173 30.4799 99.9872 30.5171C99.8139 30.5532 99.6373 30.5721 99.4601 30.5736H96.5619C96.3314 30.5736 96.1326 30.5332 95.9664 30.4525C95.7993 30.3718 95.659 30.2636 95.5437 30.128C95.4258 29.9871 95.3291 29.8308 95.2564 29.6638C95.1791 29.4893 95.1149 29.3096 95.0643 29.1262L94.4696 26.7512C94.2775 27.1346 93.9994 27.5706 93.6344 28.059C93.2395 28.5773 92.7711 29.0392 92.2429 29.4313C91.68 29.8592 91.0076 30.2176 90.2275 30.5082C89.4466 30.7988 88.5512 30.9441 87.5397 30.9441C86.0814 30.9441 84.7568 30.6721 83.5666 30.128C82.4013 29.6018 81.3646 28.843 80.5247 27.9015C79.6869 26.9619 79.0371 25.864 78.5769 24.6079C78.1159 23.3534 77.8853 22.0141 77.8853 20.5925V8.44077C77.8853 7.97094 77.9914 7.61575 78.2027 7.37437C78.4132 7.133 78.749 7.01272 79.21 7.01272H83.6434C84.1947 7.01272 84.5713 7.10152 84.776 7.28154C84.9806 7.46075 85.0833 7.8103 85.0833 8.32937V20.4061C85.0833 20.9389 85.2086 21.4426 85.4575 21.9189C85.7073 22.3952 86.0363 22.815 86.4464 23.1798C86.8557 23.5447 87.3192 23.8329 87.8379 24.0428C88.3558 24.2527 88.8836 24.3576 89.4215 24.3576C89.8817 24.3576 90.3586 24.2527 90.8514 24.0428C91.3475 23.8302 91.8069 23.5455 92.2137 23.1984C92.6296 22.8464 92.9721 22.4315 93.241 21.9552C93.51 21.4789 93.6436 20.9752 93.6436 20.444V8.38507C93.6436 8.17518 93.6854 7.96529 93.7689 7.7546C93.8524 7.54471 93.9769 7.38325 94.1431 7.27185C94.3093 7.17337 94.4663 7.10555 94.6133 7.06842C94.7603 7.03129 94.9307 7.01191 95.122 7.01191H99.4601C100.01 7.01191 100.406 7.14269 100.65 7.40182C100.893 7.66176 101.014 8.00808 101.014 8.44077V29.2004C101.014 29.4345 100.96 29.6517 100.852 29.8495C100.743 30.0472 100.593 30.2022 100.401 30.3128L100.515 30.2579ZM122.8 27.6973C122.454 28.0315 122.073 28.3899 121.658 28.7734C121.242 29.1568 120.784 29.5161 120.286 29.8495C119.784 30.185 119.243 30.4622 118.674 30.6753C118.079 30.895 117.448 31.0051 116.811 30.9998C115.071 30.9998 113.469 30.685 112.003 30.0537C110.574 29.4477 109.287 28.5672 108.222 27.4656C107.166 26.371 106.341 25.0818 105.746 23.5972C105.151 22.1134 104.853 20.5183 104.853 18.8109C104.853 17.0914 105.151 15.493 105.746 14.0158C106.341 12.5385 107.166 11.2517 108.222 10.157C109.286 9.05651 110.573 8.17893 112.003 7.57861C113.469 6.95379 115.071 6.64138 116.811 6.64138C117.515 6.64138 118.158 6.74067 118.741 6.93845C119.302 7.12655 119.837 7.38203 120.333 7.6989C120.814 8.00808 121.255 8.35762 121.658 8.74673C122.061 9.13664 122.441 9.51686 122.8 9.8882V1.40949C122.8 1.01393 122.925 0.680525 123.174 0.408477C123.424 0.135621 123.798 0 124.297 0H128.615C128.783 0 128.958 0.0339052 129.143 0.101716C129.329 0.170333 129.498 0.265591 129.653 0.389909C129.806 0.513421 129.93 0.661958 130.026 0.834713C130.122 1.00828 130.171 1.1996 130.171 1.40949V29.1447C130.171 30.0973 129.653 30.5736 128.615 30.5736H124.854C124.598 30.5736 124.399 30.5413 124.259 30.4799C124.12 30.4195 123.997 30.3272 123.903 30.2111C123.796 30.075 123.709 29.9253 123.644 29.7663C123.554 29.5569 123.458 29.3496 123.357 29.1447L122.8 27.6973ZM111.763 18.8109C111.757 19.5911 111.89 20.3664 112.156 21.1027C112.419 21.8131 112.793 22.4291 113.28 22.9482C113.771 23.4713 114.369 23.8912 115.035 24.1817C115.72 24.4852 116.479 24.6361 117.311 24.6361C118.129 24.6361 118.9 24.4941 119.623 24.2099C120.326 23.9379 120.968 23.5378 121.514 23.0313C122.056 22.5241 122.496 21.9234 122.81 21.2602C123.136 20.5796 123.318 19.8499 123.357 19.0709V18.8109C123.36 18.0346 123.203 17.2654 122.896 16.5481C122.598 15.8449 122.165 15.2028 121.62 14.6559C121.073 14.1097 120.421 13.6717 119.7 13.3667C118.947 13.0479 118.133 12.8866 117.311 12.8937C116.479 12.8937 115.72 13.0511 115.035 13.3667C114.351 13.6815 113.766 14.1118 113.28 14.6559C112.786 15.2129 112.405 15.8548 112.156 16.5481C111.893 17.2752 111.76 18.0405 111.764 18.8109H111.763ZM152.455 27.6973C152.11 28.0315 151.729 28.3899 151.313 28.7734C150.897 29.1568 150.439 29.5161 149.941 29.8495C149.439 30.185 148.898 30.4622 148.329 30.6753C147.734 30.895 147.102 31.0051 146.466 30.9998C144.726 30.9998 143.123 30.685 141.658 30.0537C140.229 29.4478 138.943 28.5673 137.876 27.4656C136.822 26.371 135.996 25.0818 135.401 23.5972C134.806 22.1134 134.508 20.5183 134.508 18.8109C134.508 17.0914 134.806 15.493 135.401 14.0158C135.996 12.5385 136.821 11.2517 137.876 10.157C138.941 9.05642 140.228 8.17883 141.658 7.57861C143.123 6.95379 144.726 6.64138 146.466 6.64138C147.17 6.64138 147.813 6.74067 148.395 6.93845C148.957 7.12655 149.492 7.38203 149.988 7.6989C150.468 8.00808 150.909 8.35762 151.313 8.74673C151.716 9.13664 152.096 9.51686 152.455 9.8882V1.40949C152.455 1.01393 152.58 0.680525 152.829 0.408477C153.079 0.135621 153.453 0 153.952 0H158.27C158.437 0 158.613 0.0339052 158.798 0.101716C158.984 0.170333 159.154 0.265591 159.308 0.389909C159.46 0.513421 159.586 0.661958 159.682 0.834713C159.777 1.00828 159.825 1.1996 159.825 1.40949V29.1447C159.825 30.0973 159.308 30.5736 158.27 30.5736H154.508C154.253 30.5736 154.054 30.5413 153.914 30.4799C153.775 30.4194 153.653 30.3271 153.559 30.2111C153.452 30.075 153.365 29.9253 153.3 29.7663C153.209 29.5569 153.113 29.3496 153.012 29.1447L152.455 27.6973ZM141.418 18.8109C141.411 19.5911 141.545 20.3664 141.811 21.1027C142.074 21.8131 142.449 22.4291 142.935 22.9482C143.426 23.4714 144.024 23.8913 144.691 24.1817C145.376 24.4852 146.134 24.6361 146.965 24.6361C147.784 24.6361 148.555 24.4941 149.278 24.2099C149.981 23.938 150.623 23.5379 151.169 23.0313C151.711 22.5239 152.15 21.9233 152.464 21.2602C152.79 20.5796 152.973 19.8499 153.012 19.0709V18.8109C153.015 18.0346 152.858 17.2654 152.551 16.5481C152.253 15.8449 151.82 15.2028 151.274 14.6559C150.727 14.1097 150.075 13.6717 149.355 13.3667C148.602 13.0479 147.788 12.8866 146.965 12.8937C146.134 12.8937 145.375 13.0511 144.691 13.3667C144.006 13.6815 143.421 14.1118 142.935 14.6559C142.441 15.2129 142.059 15.8548 141.811 16.5481C141.548 17.2752 141.414 18.0405 141.418 18.8109ZM164.932 1.42805C164.932 1.03249 165.034 0.699092 165.239 0.427044C165.444 0.154188 165.796 0.0185671 166.294 0.0185671H170.997C171.125 0.0185671 171.26 0.0524723 171.4 0.120283C171.548 0.193411 171.681 0.290949 171.793 0.408477C171.915 0.531988 172.017 0.680525 172.101 0.85328C172.184 1.02684 172.226 1.21816 172.226 1.42805V29.1447C172.226 29.6146 172.088 29.9697 171.813 30.2111C171.538 30.4525 171.183 30.5728 170.748 30.5728H166.294C165.796 30.5728 165.444 30.4517 165.239 30.2111C165.034 29.9697 164.932 29.6137 164.932 29.1447V1.42805ZM197.255 27.753C196.143 28.7467 194.856 29.5413 193.455 30.0997C192.037 30.6646 190.517 30.9517 188.982 30.9441C187.229 30.9441 185.572 30.6349 184.011 30.0158C182.485 29.4197 181.091 28.5479 179.904 27.447C178.72 26.3441 177.769 25.0306 177.101 23.5786C176.41 22.0949 176.065 20.4811 176.065 18.7366C176.065 17.6484 176.202 16.5942 176.477 15.5738C176.744 14.5754 177.137 13.6128 177.648 12.708C178.154 11.8174 178.773 10.9916 179.491 10.2499C180.207 9.50687 181.024 8.86086 181.919 8.32937C182.83 7.79105 183.811 7.37294 184.836 7.08618C185.915 6.78551 187.033 6.63572 188.156 6.64138C189.219 6.64138 190.249 6.77781 191.247 7.04985C192.245 7.3219 193.183 7.70535 194.059 8.1994C194.936 8.69425 195.738 9.2884 196.468 9.98104C197.188 10.6621 197.819 11.4252 198.349 12.2535C198.874 13.0758 199.284 13.9615 199.568 14.8876C199.856 15.8216 200 16.7831 200 17.772C200 18.4154 199.99 18.9409 199.971 19.3494C199.952 19.757 199.852 20.0824 199.673 20.3229C199.494 20.5651 199.197 20.7314 198.781 20.8234C198.365 20.9171 197.753 20.9631 196.948 20.9631H183.128C183.256 21.7542 183.515 22.4162 183.905 22.949C184.266 23.4533 184.726 23.8846 185.258 24.2188C185.77 24.5344 186.314 24.7597 186.89 24.8969C187.424 25.0275 187.971 25.0958 188.521 25.1003C188.982 25.1003 189.455 25.0535 189.941 24.9615C190.42 24.8706 190.892 24.7465 191.353 24.5901C191.784 24.4454 192.201 24.2653 192.6 24.0517C192.977 23.8483 193.281 23.6343 193.512 23.4123C193.717 23.2509 193.893 23.1306 194.04 23.0499C194.187 22.9691 194.344 22.9296 194.51 22.9296C194.677 22.9296 194.846 22.9861 195.02 23.0967C195.23 23.2389 195.426 23.4003 195.604 23.5786L197.639 25.8051C197.779 25.9665 197.869 26.1118 197.908 26.241C197.946 26.371 197.965 26.5042 197.965 26.6398C197.965 26.8876 197.894 27.1007 197.754 27.2799C197.612 27.4602 197.445 27.6196 197.255 27.753ZM188.023 12.2995C187.523 12.2995 187.041 12.3956 186.574 12.5869C186.1 12.7824 185.657 13.0417 185.258 13.357C184.849 13.6783 184.481 14.0432 184.155 14.4517C183.843 14.8368 183.576 15.2537 183.358 15.6949H193.166C192.909 15.2297 192.617 14.7832 192.293 14.3588C191.985 13.9562 191.624 13.5944 191.218 13.2828C190.804 12.9675 190.336 12.7228 189.836 12.5594C189.318 12.3859 188.714 12.2995 188.023 12.2995Z" fill="#00252E"/>
<path opacity="0.8" d="M23.0899 1.00001C16.7099 0.99682 10.0533 2.38242 3.33468 4.17971C2.48153 4.34535 1.64904 4.88366 1.20884 5.54939C0.804154 6.17689 0.657146 6.80678 0.530785 7.46693C-0.121667 10.993 -0.0423812 14.4554 0.0930645 18.2921C0.122796 19.1705 0.258242 20.2112 0.683575 20.8443C1.1279 21.4838 1.88937 21.8899 2.79867 22.0229C3.96037 22.1872 5.12571 22.3266 6.29383 22.4409L6.03616 29.3673C5.99651 29.9184 6.27567 30.3763 6.62254 30.6399C6.93307 30.8676 7.27912 30.9687 7.63425 30.9942C8.34452 31.046 9.17784 30.7529 9.59161 29.9932C11.4044 26.6296 12.5417 25.1445 14.8087 22.91C20.7205 23.0501 25.8814 22.7332 31.7246 22.3167C33.7901 22.265 35.2082 20.6365 35.5831 19.3361C36.7039 15.9661 36.8781 11.8061 36.9971 7.60071C37.0474 5.93401 36.4478 4.29757 35.3866 3.43277C34.3773 2.64361 33.155 2.35773 32.0351 2.06469C28.924 1.38542 25.8121 1.02071 23.0899 1.00001ZM31.5883 3.63583C32.7099 3.92967 33.6985 4.21236 34.322 4.70051C35.3626 5.76678 35.3279 6.4763 35.3131 7.62699C35.1958 11.7057 34.9926 15.6643 34.0379 18.664C33.6266 19.7828 32.9097 20.5791 31.5553 20.6994C25.6023 21.1238 20.4372 21.4519 14.4536 21.2879C14.3371 21.2843 14.2211 21.3038 14.1127 21.3451C14.0043 21.3865 13.9059 21.4489 13.8235 21.5284C11.3095 23.9762 10.0235 25.6772 8.10749 29.2336C8.06289 29.3148 7.96626 29.3642 7.84733 29.3729C7.76722 29.3689 7.73501 29.3092 7.73006 29.2551L7.98938 21.7442C8.00508 21.3388 7.6582 20.9518 7.2403 20.908C5.843 20.7793 4.4495 20.6147 3.06131 20.4143C2.46171 20.3259 2.24037 20.1674 2.07602 19.9317C1.79027 19.2748 1.79687 18.8686 1.77457 18.2372C1.64078 14.4347 1.57471 11.1117 2.18008 7.80536C2.23624 7.31642 2.4262 6.81633 2.62772 6.39826C2.96137 5.89499 3.4726 5.82093 3.98548 5.68396C10.5562 3.93445 16.985 2.62609 23.0371 2.62211C26.0037 2.72563 29.1189 3.01231 31.5883 3.63583ZM8.89373 10.0781C7.98856 11.1236 8.07858 12.5435 8.77811 13.4943C9.14315 13.992 9.71301 14.3925 10.4068 14.4833C11.3078 14.555 11.8793 14.203 12.4963 13.7985C13.6137 12.862 13.7268 11.2279 12.877 10.0478C12.4442 9.44658 11.7521 9.08585 11.0452 9.06036C10.0772 9.06992 9.41982 9.4864 8.89373 10.0773V10.0781ZM18.6855 9.22441C17.7836 9.25228 17.0543 9.8543 16.6092 10.5041C16.0996 11.2471 15.8023 12.1772 16.2144 13.089C17.0073 14.8432 19.7467 14.8217 20.8394 13.0388C21.3432 12.217 21.2143 11.2829 20.8394 10.6052C20.4661 9.92835 19.9012 9.3765 19.0794 9.24989C18.9492 9.22925 18.8173 9.22072 18.6855 9.22441ZM26.6346 9.38924C26.3538 9.38287 26.0648 9.40836 25.7939 9.47764C24.7103 9.75635 23.7878 10.8346 23.9274 12.2146C23.9984 12.909 24.3296 13.5859 24.9267 14.0525C25.5238 14.5183 26.391 14.727 27.3053 14.5462C28.3558 14.3392 29.0066 13.5229 29.2238 12.7346C29.441 11.9462 29.3865 11.1427 28.8819 10.4914C28.6193 10.1547 28.2804 9.88041 27.8911 9.68939C27.5017 9.49838 27.0714 9.39572 26.6346 9.38924ZM10.9717 10.6817C11.174 10.6833 11.3334 10.7454 11.4978 10.9731C11.8653 11.4844 11.7629 12.2592 11.392 12.5698C11.0229 12.8803 10.7924 12.9074 10.6306 12.8867C10.4687 12.8652 10.3043 12.7577 10.1573 12.557C9.87654 12.1748 9.79395 11.5568 10.1631 11.1157C10.3597 10.864 10.7206 10.7072 10.9725 10.6817H10.9717ZM18.8036 10.8593C18.835 10.864 19.1868 11.0607 19.3553 11.3657C19.5237 11.6707 19.5551 11.9542 19.3949 12.2146C18.9184 12.9918 17.905 12.7816 17.7514 12.4431C17.6936 12.3141 17.7373 11.7957 18.0157 11.392C18.2923 10.9867 18.6409 10.8346 18.8036 10.8585V10.8593ZM27.5283 11.4549C27.5795 11.521 27.7042 11.9645 27.6075 12.3165C27.5101 12.6685 27.3515 12.8859 26.9633 12.9623C26.4662 13.0611 26.187 12.9623 25.9781 12.7975C25.7683 12.6343 25.6271 12.3579 25.5965 12.0625C25.5222 11.3299 25.7947 11.1603 26.2275 11.0488C26.7313 10.9293 27.3011 11.138 27.5283 11.4549Z" fill="#FF52C1"/>
</svg>
